<svg width="13" height="11" viewBox="0 0 13 11" fill="none" xmlns="http://www.w3.org/2000/svg">
<path id="Subtract" fill-rule="evenodd" clip-rule="evenodd" d="M11.4664 11C11.4894 10.5233 11.5 10.023 11.5 9.5C11.5 6.91305 11.2196 4.8705 10.4677 3.50676C10.1108 2.85955 9.65683 2.38328 9.07101 2.05707C8.47726 1.72643 7.65766 1.5 6.5 1.5C5.34234 1.5 4.52274 1.72643 3.92899 2.05707C3.34317 2.38328 2.88917 2.85955 2.53231 3.50676C1.78036 4.8705 1.5 6.91305 1.5 9.5C1.5 10.0225 1.50018 10.522 1.50614 11H0.00598397C-1.14867e-10 10.5114 0 10.0104 0 9.5C0 4.25329 1.08333 0 6.5 0C11.9167 0 13 4.25329 13 9.5C13 10.0104 12.9905 10.5114 12.9684 11H11.4664Z" fill="#313133"/>
</svg>
